<svg width="32" height="32" viewBox="0 0 32 32" fill="none" xmlns="http://www.w3.org/2000/svg">
  <!-- Background gradient -->
  <defs>
    <linearGradient id="grad1" x1="0%" y1="0%" x2="100%" y2="100%">
      <stop offset="0%" style="stop-color:#4F46E5;stop-opacity:1" />
      <stop offset="100%" style="stop-color:#7C3AED;stop-opacity:1" />
    </linearGradient>
  </defs>
  
  <!-- Rounded rectangle background -->
  <rect width="32" height="32" rx="6" fill="url(#grad1)"/>
  
  <!-- Screen outline -->
  <rect x="6" y="7" width="20" height="14" rx="1.5" stroke="white" stroke-width="2" fill="none"/>
  
  <!-- Pixel grid (3x3) -->
  <rect x="9" y="10" width="2" height="2" fill="white" opacity="0.9"/>
  <rect x="13" y="10" width="2" height="2" fill="white" opacity="0.9"/>
  <rect x="17" y="10" width="2" height="2" fill="white" opacity="0.9"/>
  <rect x="21" y="10" width="2" height="2" fill="white" opacity="0.9"/>
  
  <rect x="9" y="14" width="2" height="2" fill="white" opacity="0.9"/>
  <rect x="13" y="14" width="2" height="2" fill="#F59E0B" opacity="1"/>
  <rect x="17" y="14" width="2" height="2" fill="white" opacity="0.9"/>
  <rect x="21" y="14" width="2" height="2" fill="white" opacity="0.9"/>
  
  <rect x="9" y="18" width="2" height="2" fill="white" opacity="0.9"/>
  <rect x="13" y="18" width="2" height="2" fill="white" opacity="0.9"/>
  <rect x="17" y="18" width="2" height="2" fill="white" opacity="0.9"/>
  <rect x="21" y="18" width="2" height="2" fill="white" opacity="0.9"/>
  
  <!-- Screen stand -->
  <path d="M 14 22 L 18 22 L 17 25 L 15 25 Z" fill="white" opacity="0.9"/>
  <rect x="12" y="25" width="8" height="1" rx="0.5" fill="white" opacity="0.9"/>
</svg>
